<svg width="640" height="615" fill="none" xmlns="http://www.w3.org/2000/svg">
  <g clip-path="url(#Workflow_Teamwork_1__clip0)">
    <path d="M561.137 456.284c-3.799 74.04-63.152 141.136-135.908 155.568-72.756 14.433-152.384-23.955-187.835-89.077-3.913-7.186-7.397-14.724-10.88-22.261-8.993-19.457-17.984-38.909-34.333-52.292-18.666-15.282-42.674-19.369-66.922-23.498-15.399-2.621-30.894-5.259-45.182-10.791-34.443-13.335-61.186-44.926-68.641-81.084C-.645 274.254 37.62 214.43 88.65 183.162c51.029-31.27 112.348-39.979 171.827-46.689 22.752-2.567 41.234-19.705 54.434-38.405 5.111-7.238 9.708-14.846 14.303-22.447 7.273-12.034 14.538-24.053 23.814-34.578C392.307-3.522 465.45-11.042 515.48 21.003c50.029 32.045 73.975 97.938 60.671 155.821-2.292 9.969-5.545 19.677-8.797 29.385l-.001.002c-3.114 9.293-6.228 18.587-8.499 28.111-4.855 20.359-5.782 41.428-6.334 62.349-.659 24.945-.814 49.955 1.523 74.799.813 8.643 1.927 17.274 3.042 25.904 2.531 19.61 5.063 39.21 4.052 58.91z" fill="#3A0CA3"/>
    <path d="M260.395 118.789c27.204-13.527 48.855-37.019 62.491-64.158 1.787-3.559 3.481-7.34 3.419-11.321-.063-3.982-2.381-8.199-6.234-9.21-5.523-1.449-10.271 3.843-13.715 8.395-23.655 31.267-58.086 55.813-96.939 61.166-14.922 2.056-30.072 1.284-45.115.507l-23.496-1.212c-18.925-.977-38.112-1.934-56.637 2.058-18.523 3.99-36.624 13.59-46.798 29.569-3.238 5.086-5.664 11.079-4.768 17.041.918 6.109 5.263 11.295 10.497 14.582 5.233 3.286 11.314 4.931 17.34 6.307 4.411 1.007 8.918 1.899 13.431 1.582 7.382-.519 14.079-4.187 20.596-7.757l1.3-.711c11.391-6.211 23.193-11.727 35.503-15.825 17.951-5.976 36.826-8.9 55.656-11.818 25.365-3.93 50.647-7.847 73.469-19.195z" fill="#FFBA08"/>
    <path d="M118.924 479.149l.016.001c1.109.043 2.217.088 3.322.145a138.026 138.026 0 0150.664 12.546c6.056 2.803 12.189 6.312 15.591 12.051a104.87 104.87 0 0015.016 19.622c2.233 2.296 4.65 4.542 7.631 5.716 2.982 1.172 6.663 1.065 9.081-1.034 2.938-2.551 3.129-7.081 2.224-10.864-1.484-6.2-5.185-11.603-8.848-16.822-12.019-17.125-24.673-34.248-41.399-46.823-16.727-12.574-38.313-20.189-58.786-15.844-7.069 1.499-14.075 4.556-18.762 10.055-4.687 5.497-6.54 13.772-3.164 20.158 2.679 5.067 8.107 8.184 13.666 9.589 4.479 1.132 9.118 1.318 13.747 1.504h.001z" fill="#9D4EDD"/>
    <path d="M591.765 221.569c-4.674-1.761-9.967.366-13.922 3.413-7.812 6.02-12.434 15.437-14.537 25.069-2.103 9.632-1.933 19.596-1.753 29.454l1.544 84.698c.114 6.187.389 12.857 4.196 17.737 1.191 1.527 2.822 2.869 4.75 3.065 2.336.238 4.497-1.236 6.185-2.869 9.227-8.929 10.438-22.995 11.543-35.815l.04-.466a449.895 449.895 0 018.408-56.003c1.118-5.194 2.347-10.42 4.685-15.189 7.331-14.954 5.578-33.937-4.368-47.297-1.8-2.416-3.952-4.734-6.771-5.797z" fill="#F72585"/>
    <path d="M424.373 336.214c4.93 1.357 9.347 5.462 9.832 10.55.935-2.024 2.989-3.486 5.209-3.71l-3.223 3.423 4.078.081-5.611 3.133c3.478 6.43 2.915 14.36.685 21.322-1.364 4.26-3.338 8.529-2.953 12.986.378 4.384 4.273 8.863 8.531 7.966l.214-.05c5.117-1.292 10.721-.544 15.319 2.046 6.608 3.72 10.617 10.629 15.157 16.7 4.009 5.359 8.754 10.342 14.685 13.448 5.93 3.104 13.203 4.129 19.381 1.551 3.065-1.279 5.81-3.396 9.062-4.07 3.253-.674 6.587 1.134 7.781 4.215.528 1.363-.607 6.412-3.503 12.311a6.972 6.972 0 011.479-.255c15.216-.988 30.572-4.294 43.667-12.102 4.162-2.482 8.05-5.391 11.911-8.323l2.249-1.714 1.361-1.048c8.471-6.558 16.833-13.869 20.316-23.845l.181-.536.387-1.179c.744-2.233 1.689-4.539 3.845-5.233 2.983-.959 5.701 1.928 7.514 4.483l13.07 18.416c.335.473.678.962.807 1.528.566 2.502-3.172 3.767-5.58 2.878-4.379-1.616-7.894-6.43-12.49-5.604-3.229.58-5.159 3.706-6.755 6.651l-.404.751c-9.672 18.098-25.946 32.577-45.052 40.081-4.925 1.934-10.013 3.416-15.095 4.895l-10.264 2.988 1.809.323c15.315 2.684 31.654 4.322 45.562-2.461 9.26-4.516 16.393-12.291 23.122-20.148l2.441-2.868 1.007-1.198c4.13-4.952 8.054-10.252 9.259-16.528.463-2.41 3.506-3.559 5.873-2.907 2.367.654 4.169 2.524 5.845 4.318l12.705 13.591c1.001 1.071 2.055 2.253 2.201 3.711.147 1.458-1.161 3.108-2.569 2.699l-13.777-3.999c-1.292-.375-2.724-.742-3.941-.167-.932.44-1.534 1.343-2.067 2.234l-14.811 25c-4.172 7.04-11.901 11.121-19.495 14.174a140.81 140.81 0 01-57.591 10.023c-2.131-.08-4.264-.209-6.369-.541-7.913-1.246-15.06-5.268-21.979-9.335 1.214 4.435.133 8.176-7.073 8.46-6.383.251-22.016-26.014-26.878-27.376-26.537-7.438-30.894-22.119-39.419-32.148 0 0-17.229 2.225-28.603-.145-26.664-5.556-44.583-22.647-51.043-23.736-6.46-1.088-10.72 3.05-12.715.54v-1.818c.309-.501 3.396-3.383 12.202-1.511 12.297 2.615 31.954 12.486 46.966 14.33 15.759 1.935 29.108-.627 29.035-1.057-.15-.876 3.811-4.604.647-6.485-3.165-1.883-49.111-20.313-59.098-35.673l-.12-.192c-1.716-2.848-3.021-9.928.434-6.687l.967-1.715c3.72 3.507 15.934 11.522 28.623 19.424 13.414 8.354 32.359 13.704 32.705 13.47 7.72-5.219.873-8.997-.405-10.107-2.991-2.596-6.962-4.011-9.539-7.019-6.182-7.213-1.767-20.116-8.833-26.467-1.069-.961-2.366-1.717-3.141-2.928-1.327-2.074-.674-4.961.934-6.827 1.607-1.866 3.958-2.908 6.284-3.72 4.828-1.685 10.123-2.625 15.054-1.268z" fill="#fff"/>
    <path d="M428.515 374.922a1.823 1.823 0 100-3.645 1.823 1.823 0 000 3.645zm-11.116 0c.747 0 1.352-.816 1.352-1.822 0-1.006-.605-1.822-1.352-1.822-.747 0-1.352.816-1.352 1.822 0 1.006.605 1.822 1.352 1.822z" fill="#FFB61D"/>
    <path d="M351.331 381.93a134.275 134.275 0 00-52.103-2.956 194.227 194.227 0 014.917-19.195c-5.64 1.819-12.301-3.349-11.937-9.262.366-5.914 7.61-10.224 12.986-7.726 1.846-4.258 1.963-9.236.319-13.577-.789-2.081 2.354-3.283 4.582-3.283l12.308-.003c1.721-.001 4.12-.799 3.692-2.465-1.013-3.95 1.705-8.463 5.671-9.418 3.894-.936 8.279 1.729 9.284 5.592l.053.215c.935 4.148 6.192 5.466 10.445 5.385l2.118-.051c3.679-.078 7.513.041 9.975 2.614 2.945 3.075 2.287 7.974 1.316 12.151l-.064.277a570.961 570.961 0 01-4.4 17.323c3.024 24.319-4.463 25.594-9.162 24.379zm-141.378-20.305a116.386 116.386 0 01.007-35.341l.091-.565c.448-2.653 1.233-5.453 3.451-6.914 1.659-1.094 3.756-1.176 5.756-1.177l15.31.042c.696.002 1.46.028 1.984.487.525.459.51 1.514-.162 1.699-1.603.445-2.525 2.293-2.331 3.945.195 1.651 1.27 3.082 2.532 4.166 3.009 2.586 7.687 3.504 11.018 1.349 3.331-2.156 4.115-7.71.958-10.114a456.819 456.819 0 0121.457.067l2.68.079c.867.028 1.825.098 2.431.718.455.466.604 1.143.706 1.785a23.412 23.412 0 01-2.426 14.569c-.375.706-1.243 1.482-1.835.945-2.512-2.279-6.737-1.969-9.308.245-2.57 2.213-3.565 5.891-3.11 9.252.438 3.234 2.796 6.689 6.058 6.526 2.569-.128 5.426-2.374 7.367-.687l-3.27 14.605c-.582 2.595-1.624 5.674-4.226 6.23a102.345 102.345 0 01-45.674-.705l-.724-.183c-1.81-.473-3.612-1.086-5.024-2.293-2.457-2.103-3.225-5.534-3.716-8.73zm117.82-114.616l36.29.729.593.015c1.09.034 2.187.129 3.169.588 2.218 1.034 3.235 3.585 3.91 5.937 3.601 12.555 3.157 26.237-1.252 38.532l-.186.503c-.573 1.513-1.323 3.021-2.678 3.872-1.116.701-2.475.848-3.797.918l-.283.014a111.32 111.32 0 01-16.188-.412c2.8-1.723 3.507-5.917 1.73-8.681-1.779-2.765-5.535-3.919-8.698-3.022-1.928.548-3.724 1.864-4.421 3.742-.698 1.878-.024 4.29 1.759 5.207 1.232.634 1.02 2.632-.06 3.502-1.078.869-2.579.931-3.964.953l-18.208.295c-1.368.023-2.807.028-4.009-.627-1.704-.929-2.487-2.931-2.967-4.811a32.41 32.41 0 01-.456-13.925c1.036 3.634 5.516 5.841 9.03 4.447 3.513-1.393 5.262-6.07 3.522-9.424-1.739-3.355-6.569-4.625-9.735-2.559l-.131-1.172c-.454-4.11-.807-8.274-.018-12.321.865-4.434 3.332-8.788 7.377-10.803 2.95-1.468 6.356-1.549 9.671-1.497zm-110.067 40.802c-5.111.02-10.222-.19-15.313-.63l-.494-.045c-1.824-.182-3.736-.547-4.931-1.902-1.611-1.829-1.217-4.586-.733-7l.048-.239a131.52 131.52 0 002.526-32.236l-.091-1.862c-.136-3.346.078-7.141 2.859-8.862.847-.524 1.829-.767 2.809-.964l.325-.065a129.302 129.302 0 0154.016 1.024c2.327.545 2.974 3.694 2.203 5.954-.771 2.26-2.428 4.16-3.048 6.467-.619 2.306.516 5.427 2.904 5.502 4.97.156 9.182 5.202 8.514 10.126-.667 4.924-5.993 8.66-10.868 7.681-1.144-.228-1.549 1.461-1.423 2.621l1.391 12.855c.227 2.098-2.752 2.76-4.857 2.597l-12.281-.956c-1.93-.15-4.518.183-4.815 2.094-.74 4.76-5.623 8.475-10.409 7.924-4.788-.552-8.695-5.282-8.332-10.084z" fill="#fff"/>
    <path fill-rule="evenodd" clip-rule="evenodd" d="M184.647 366.925c1.363.331 3.314.92 3.206 2.207-2.181 25.959-11.568 21.182-19.939 28.625-2.212 1.967-3.534 6.618-4.483 6.724 3.522 1.627 8.635 8.15 17.432 8.449 24.515.831 33.438-17.048 33.438-17.048.576-5.732-2.333-16.056 1.298-13.165 2.507 1.995 2.011-7.726 5.435-6.759 1.028.292-.769 6.755 0 7.141.424.215 1.052-1.548 2.146-2.95.914-1.169 2.322-2.034 2.614-1.779.197.173.008 1.844-.814 3.257-1.156 1.987-3.088 3.9-2.818 4.218.297.35 5.393-4.389 5.704-3.975 2.062 2.749-10.998 34.391-33.035 40.365l-1.746.469c-12.846 3.411-18.242 3.876-30.144-.469-5.643-2.061-9.153 17.184-12.291 23.589-1.981 4.044-11.601 13.956-15.994 10.959-5.796-3.955-10.522-11.316-15.455-15.039l-.317-.233c-3.361-2.409-10.965-6.064-22.81-10.967l.535-.246c2.47-1.123 8.836-3.869 13.723-8.063 6.945-5.959 10.707-18.76 15.547-25.664 4.781-6.816 11.194-5.812 7.324-7.017 0 0-9.81-5.194-14.319-5.67-15.06-1.589-34.692 5.525-40.973 10.109-8.617 6.29-.055 15.547-11.962 11.01-3.968-1.512 6.668-21.102 21.34-29.045 20.393-11.04 39.675-14.077 59.008 3.498 7.867 7.152 8.646 13.52 10.755 18.374l-.431-1.19c23.322-1.537-11.622-24.873 17.551-30.713 3.063-.614 6.279.024 9.35.734l1.125.264z" fill="#fff"/>
    <path d="M169.628 384.944a1.822 1.822 0 10-1.823-1.822c0 1.007.816 1.822 1.823 1.822zm10.028 3.645a1.823 1.823 0 100-3.645 1.823 1.823 0 000 3.645z" fill="#FFB61D"/>
    <path fill-rule="evenodd" clip-rule="evenodd" d="M73.816 453.791c19.762 13.676-5.522-5.215 16.07 17.298 4.36 4.547 26.437-21.418 28.714-6.031.83 5.613-.981 11.456.123 17.021 1.031 5.193 23.629 2.075 25.374-.196 6.328-8.234-13.364-29.384-17.493-32.764-23.042-18.866-30.645-17.558-52.175 1.961l-.613 2.711zM587.89 111.935c3.876.462 7.481.892 7.481-3.622 0-1.075-13.046-10.513-16.911-6.878-4.971 4.674-8.919 10.033-12.743 15.225-8.027 10.897-15.508 21.054-30.762 22.568l-.185.02c-5.912.713 5.104 5.959 17.476-.02 8.506-4.112 19.823-17.118 25.199-23.296 1.406-1.617 2.406-2.767 2.843-3.166l.112-.095c1.831-1.412 4.73-1.066 7.49-.736zm18.403 12.219l12.907 10.24c2.514 1.996-.43 6.295-3.633 6.501-1.86.119-3.642-.453-5.434-1.027-1.296-.416-2.598-.833-3.936-.991-7.58-.896-13.359 6.239-18.061 12.248a141.078 141.078 0 01-14.064 15.461l-.685.643-.713.656c-4.071 3.7-8.638 7.051-14.009 8.016-7.909 1.422-15.765-2.626-22.226-7.402-1.576-1.166-3.123-2.389-4.673-3.612-4.798-3.79-9.604-7.586-15.294-9.714a75.856 75.856 0 00-13.759 9.646l.188-.148c7.075 7.087 12.022 16.27 14.048 26.076l-1.353-.238-.894-.152c-8.36-1.402-17.313-2.231-24.378 2.241-2.49 1.575-4.71 3.777-6.906 5.952-1.529 1.515-3.045 3.018-4.632 4.29.403.238.815.487 1.237.746a87.003 87.003 0 0024.512 6.055c1.286.124 2.585.222 3.886.322 6.031.457 12.139.921 17.293 3.947l1.808 1.08c2.9 1.716 6.129 3.35 8.559 1.362.699-.571 1.156-1.354 1.616-2.142.279-.479.559-.959.896-1.394.887-1.148 2.649-1.957 3.753-1.014l.447 3.512c.326-2.259 2.506-4.095 4.788-4.032 2.281.064 4.357 2.018 4.556 4.291.361 4.127-4.32 6.596-8.293 7.91l-20.591 6.633c-7.358 2.369-15.514 1.141-22.607-1.931-6.604-2.86-12.43-7.213-17.997-11.788l-1.234-1.02c-4.205-3.497-9.888-7.296-14.658-4.622 8.289.504 14.335 7.644 19.278 14.396l.475.652c.8 1.103 1.624 2.264 1.822 3.612.554 3.773-3.735 6.278-7.357 7.478 3.052 1.633 1.54 6.378-.825 8.906-3.441 3.677-7.947 6.324-12.808 7.634l-.444 1.535a1.025 1.025 0 00-.038.159c2.293-.16 3.707 2.919 2.772 5.017-.933 2.099-3.239 3.216-5.45 3.841-7.287 2.059-15.518.435-21.475-4.238l-1.158.603c-5.032 2.603-10.238 5.024-15.832 5.845-6.023.884-12.654-.357-17.009-4.61l.287.626c.616 1.365 1.169 2.777 1.189 4.265.022 1.716-.866 3.569-2.492 4.119-2.684.91-5.028-1.958-6.421-4.424-.763 1.899.023 4.035.788 6.114.873 2.369 1.718 4.663.201 6.438-1.58 1.847-4.577 1.374-6.751.284-8.145-4.083-11.971-14.36-10.207-23.295 1.765-8.935 8.192-16.417 15.846-21.358-5.196-3.806-8.998-9.474-10.546-15.725.412.532 2.254-1.18 4.871-3.61 4.788-4.448 12.168-11.304 18.13-11.24 1.143.012 2.988.896 4.793 1.76h.001c1.308.627 2.596 1.244 3.585 1.515.082-.106.181-.202.295-.285l-1.128-.81c-2.269-1.611-4.639-3.127-7.326-3.794-3.135-.779-6.847-.138-8.844 2.399a57.315 57.315 0 01-18.044 15.091l4.133 7.627c-1.708.816-3.836.666-5.422-.362l-.195-.133.122.153c2.381 3.103.289 8.514-3.608 9.127-3.954 1.659-7.942-3.295-7.553-7.564.273-2.992 1.756-5.643 3.242-8.299.633-1.135 1.268-2.269 1.809-3.432 1.829-3.926 2.633-8.289 3.432-12.624 1.095-5.941 2.18-11.83 5.881-16.474 2.592-3.252 6.222-5.514 9.945-7.369 14.778-7.362 32.264-9.122 48.213-4.853a56.774 56.774 0 0115.412-25.667l.436-.409c2.796-2.575 6.275-4.877 9.985-4.454l.294.039c3.682.562 6.885-2.279 9.562-4.909l.826-.81.646-.623c5.314-5.071 11.481-9.752 18.74-10.257 6.458-.449 12.639 2.514 18.213 5.804a133.565 133.565 0 0117.915 12.67l.985.836.289.247.321.276.184.158c5.29 4.541 11.079 9.512 17.966 9.1 7.06-.423 12.219-6.281 16.972-11.679l.001-.002.003-.002c.382-.435.763-.868 1.143-1.294 5.863-6.597 12.539-12.404 19.297-18.093l2.899-2.433c.876-.735 1.821-1.5 2.956-1.648 1.597-.207 3.053.852 4.314 1.852zM478.678 235.977c-1.434-.286-3.392-.161-5.873.373a67.856 67.856 0 004.125-.087c.541-.067 1.079-.15 1.607-.257l.141-.029zM425.53 204.39c.524-.537 1.076-1.103 1.689-1.588 1.139-.6 2.423-.904 3.714-.782 4.373.415 7.684 5.064 7.112 9.416-2.308 5.716-8.02 8.979-13.67 12.205-3.48 1.987-6.937 3.962-9.558 6.487.658-1.085 1.378-1.95 2.108-2.481 2.281-1.66 4.665-3.097 6.912-4.452l.001-.001c1.888-1.139 3.68-2.219 5.232-3.324 2.442-1.737 4.082-3.389 5.353-4.669h.001c.97-.979 1.727-1.74 2.46-2.156.06-.035 2.816-5.617-3.845-9.266-5.03-2.755-7.271.73-8.475 2.603-.391.608-.673 1.046-.905 1.046-.06 0-.144-.009-.25-.028a6.913 6.913 0 01.744-1.705c.45-.355.902-.818 1.377-1.305zm1.421-1.44a7.937 7.937 0 00-2.798 2.745l-.166.125c-.332.241-.664.418-1.008.499-.692.163-2.34-1.1-3.737-2.171-.835-.64-1.579-1.212-1.976-1.367-2.611-1.024-2.917-1.037-4.727-1.124a80.668 80.668 0 01-1.065-.055l-.751-.046c-.164-.01-.346-.017-.539-.026h-.001c-1.5-.062-3.66-.153-3.229-1.32 7.714-20.866 40.672-25.407 35.223-1.819-.451 1.95-1.634 3.657-2.817 5.364-.592.854-1.183 1.708-1.683 2.592-2.129-3.025-4.45-4.62-6.962-4.784-1.4-.092-2.524.47-3.496 1.239l-.268.148zm59.783-18.72l.007-.012c-1.814 3.446-3.762 7.595-5.843 12.444a76.699 76.699 0 015.836-12.432zm14.695 3.178l-.253.01c-2.011.084-3.815.385-5.412.902-1.771.574-3.657 1.534-5.656 2.878a33.011 33.011 0 0111.321-3.79z" fill="#fff"/>
    <path fill-rule="evenodd" clip-rule="evenodd" d="M398.593 274.802c-1.58 1.849-3.87 1.253-5.969-.792-4.39-4.278-6.155-12.533-4.39-21.467 1.764-8.936 8.641-12.617 16.295-17.557-3.435-1.415-9.657-10.379-10.281-19.09 2.117 2.73 2.228 7.63 4.345 10.36 2.009 2.591 6.023 5.746 8.032 8.336.256.331.478.886.114 1.093-7.338 4.166-12.092 5.544-16.42 16.857-4.327 11.312 4.459 21.776 5.626 21.468 1.439-.38.929-2.287.103-3.523-2.331-3.489-.114-8.139 1.786-11.879 1.016 1.138-1.426 4.402-.912 7.796.503 3.314 3.078 6.752 1.671 8.398z" fill="#E7EAEE"/>
    <path d="M428.515 239.167a1.823 1.823 0 100-3.646 1.823 1.823 0 000 3.646zm-6.381-7.289a1.823 1.823 0 100-3.645 1.823 1.823 0 000 3.645z" fill="#FFB61D"/>
    <path d="M149.492 247.952c1.054 1.966-.603 4.776-2.834 4.808-1.911-10.737-3.972-21.848-10.191-30.81-11.907-17.16-36.444-22.796-46.639-41.023-6.941 4.938-17.556 3.679-23.148-2.746-3.478-3.996-9.54-4.486-14.764-3.594-5.223.891-10.326 2.862-15.622 2.694-2.298-.073-4.802-.69-6.14-2.559-1.337-1.87-.564-5.16 1.712-5.485l29.747-4.256c.779-.111 1.605-.244 2.196-.762.669-.587.879-1.526 1.052-2.398 1.436-7.221 2.47-15.828-2.85-20.92-4.409-4.221-11.367-4.075-17.357-2.898-5.99 1.177-12.163 3.114-18.066 1.56-5.903-1.554-10.84-8.563-7.657-13.77 2.131-3.487-.272-8.138-3.56-10.568-3.287-2.429-7.379-3.626-10.565-6.186-3.187-2.56-5.21-7.5-2.671-10.704 1.116-1.41 2.864-2.15 4.579-2.692 5.675-1.79 12.004-1.926 17.475.415 5.47 2.342 9.913 7.36 10.804 13.242.725 4.791-.653 10.365 2.516 14.033 4.143 4.795 11.801 2.105 18.14 2.048 6.483-.06 12.894 3.376 16.432 8.806 3.539 5.429 4.092 12.679 1.418 18.582 7.53-7.658 17.672-13.533 28.408-13.133 9.916.369 19.027 6.07 25.659 13.447 6.631 7.377 11.156 16.363 15.592 25.234 1.653 3.305 5.845 5.096 9.378 4.007 3.532-1.089 5.985-4.931 5.487-8.592 3.079.671 3.399 4.83 3.494 7.978.199 6.614 2.595 13.143 6.722 18.317a34.066 34.066 0 003.126-8.079c3.012 3.462 4.136 8.471 2.891 12.886-1.246 4.415-4.821 8.101-9.198 9.48-2.329.735-5.178 1.087-6.334 3.237a165.724 165.724 0 0111.223 23.879c1.661 4.419 2.86 10.104-.637 13.276-4.043-2.982-6.341-7.715-8.486-12.258l-10.038-21.257" fill="#fff"/>
    <path fill-rule="evenodd" clip-rule="evenodd" d="M160.529 177.023c-.879 8.58 2.335 17.489 8.489 23.535 2.194-1.323 3.598-3.863 3.548-6.424 2.307 3.789 1.015 8.929-1.853 12.315-2.868 3.384-6.982 5.414-10.974 7.351-2.287 1.111-4.662 2.243-7.204 2.319-3.878.116-7.352-2.215-10.523-4.45l-9.302-6.555c4.806 8.963 15.745 14.183 25.742 12.283 6.95 9.746 11.206 21.392 12.177 33.322l-1.868-3.451a.73.73 0 00-.068-.125l.068.125c.268.662-.782 1.393-1.489 1.052-.752-.365-1.036-1.269-1.258-2.075a71.933 71.933 0 00-14.271-27.104l10.039 21.258c2.145 4.542 4.443 9.275 8.485 12.259 3.498-3.173 2.299-8.859.638-13.278a165.82 165.82 0 00-11.223-23.878c.938-1.746 2.993-2.307 4.979-2.849h.001v-.001h.001c.459-.124.914-.249 1.352-.387 4.377-1.379 7.952-5.066 9.198-9.481 1.245-4.415.121-9.424-2.891-12.886a34.033 34.033 0 01-3.126 8.079c-4.126-5.173-6.522-11.702-6.722-18.316-.094-3.148-.415-7.307-3.494-7.978.498 3.661-1.955 7.502-5.487 8.591-3.533 1.09-7.725-.701-9.378-4.006-4.436-8.871-8.96-17.857-15.592-25.234-6.632-7.377-15.743-13.078-25.659-13.447-10.736-.4-20.878 5.474-28.408 13.133 2.674-5.903 2.12-13.153-1.417-18.582-3.539-5.431-9.95-8.866-16.433-8.807-1.644.015-3.378.207-5.115.4-4.96.549-9.956 1.103-13.025-2.448-2.167-2.508-2.208-5.907-2.249-9.338-.019-1.587-.038-3.18-.267-4.695-.89-5.882-5.333-10.9-10.804-13.24-5.47-2.342-11.8-2.206-17.475-.416-1.715.54-3.463 1.283-4.579 2.691-2.538 3.205-.516 8.145 2.67 10.705 1.678 1.348 3.606 2.317 5.535 3.288 1.737.873 3.474 1.748 5.032 2.898 3.287 2.429 5.69 7.081 3.56 10.567-3.183 5.207 1.754 12.217 7.657 13.771 4.88 1.285 9.944.184 14.936-.901 1.047-.228 2.091-.455 3.13-.659 5.99-1.177 12.948-1.323 17.357 2.898 5.32 5.091 4.285 13.699 2.85 20.92-.174.872-.384 1.811-1.053 2.398-.59.518-1.417.65-2.196.762l-29.747 4.256c-2.276.325-3.048 3.615-1.71 5.484 1.337 1.87 3.84 2.487 6.139 2.559 3.513.111 6.942-.719 10.377-1.549 1.743-.422 3.487-.845 5.245-1.145 5.223-.891 11.285-.401 14.763 3.594 5.593 6.426 16.207 7.684 23.149 2.746 5.364 9.592 14.7 15.697 24.077 21.829 8.443 5.521 16.92 11.065 22.561 19.195 6.219 8.962 8.28 20.073 10.191 30.81 2.231-.031 3.889-2.843 2.835-4.809l-2.097 2.764c-.775-16.923-9.423-33.325-22.952-43.529-3.35-2.528-7.025-4.744-10.691-6.954-8.057-4.857-16.075-9.692-20.535-17.761-.402-.726-.776-1.496-.842-2.323-.082-1.047.336-2.058.739-3.032l.057-.139c1.608-3.899 2.732-8.177 1.942-12.32-.79-4.142-3.91-8.06-8.083-8.683 7.064 4.515 8.511 15.723 2.828 21.884-5.685 6.161-16.978 5.625-22.052-1.046-4.067-5.346-12.2-4.692-18.747-3.175-6.546 1.516-14.255 3.103-19.312-1.32a160.147 160.147 0 0133.154-5.453c2.669-.153 3.715-3.481 4.075-6.129.552-4.069 1.105-8.204.5-12.267-.606-4.062-2.537-8.114-5.986-10.346-4.142-2.682-9.488-2.266-14.396-1.753l-13.042 1.364c-2.81.294-5.698.582-8.423-.166-2.724-.748-5.288-2.778-5.81-5.553-.33-1.753.172-3.48.678-5.22.364-1.253.73-2.513.79-3.796.17-3.652-2.19-6.998-5.058-9.268-1.758-1.389-3.716-2.483-5.676-3.579-1.24-.691-2.479-1.384-3.67-2.153-2.24-1.445-4.538-3.781-3.916-6.373.399-1.657 1.9-2.806 3.408-3.601 5.094-2.684 11.46-2.805 16.653-.316 5.192 2.49 9.083 7.527 10.178 13.178.27 1.394.392 2.85.515 4.302.283 3.361.565 6.706 2.666 9.231 2.51 3.016 6.847 3.776 10.767 3.589 1.344-.064 2.688-.215 4.031-.365 2.574-.288 5.144-.576 7.703-.253 8.604 1.083 15.384 10.031 14.094 18.603-.071.474-.163.952-.255 1.432-.329 1.709-.66 3.436-.076 5.042.748 2.056 4.02 3.152 5.058 1.225 4.646-8.637 15.305-12.987 25.048-11.847 9.744 1.141 18.464 7.005 24.862 14.439 6.396 7.434 10.748 16.381 14.717 25.348 1.398 3.158 5.561 4.302 8.885 3.363 3.325-.941 5.964-3.425 8.35-5.923zm-17.461 15.051c.095-.014.313.416.644 1.062.813 1.591 2.301 4.501 4.262 5.387-.088.825-1.385.383-1.924-.247-1.534-1.791-3.161-3.851-2.982-6.202zm4.629 14.135c1.013 1.482-5.05 2.22-7.065.927.355-.068.822-.032 1.34.009.615.047 1.299.1 1.95-.009.953-.16 1.872-.452 2.567-.674.674-.214 1.135-.36 1.208-.253zm-1.455-5.509c-2.413.413-5.378-2.799-5.378-5.821.695 2.234 3.167 4.006 4.532 4.985.695.498 1.103.791.846.836zm8.646 12.633c-3.214 0-4.671-5.416-3.214-5.765.348-.157.365.328.389 1.044.026.753.06 1.763.498 2.548.487.874 1.518 1.457 2.119 1.798.455.257.665.375.208.375zm3.581-7.375c.705.388 1.349.99 1.532 1.774.183.785-.256 1.735-1.045 1.899-.247-.363-.113-.594.028-.837.208-.357.431-.742-.515-1.613-.398-.367-.862-.526-1.188-.638-.25-.086-.418-.144-.412-.246.041-.653 1.027-.655 1.6-.339zm-6.016-7.06c-.159.111-.268.187-.175.274.29.27.632.399.974.203.26-.15.392-.453.454-.746.343-1.642-1.391-3.337-3.026-2.958.145.383.423.505.76.653.389.172.857.378 1.291 1.057.586.917.049 1.29-.278 1.517zm-.55 15.472c-1.893-.551-3.764-5.018-2.757-5.357.629-.211.626-.177.589.176-.034.325-.095.916.275 1.833.461 1.138 1.104 2.062 1.515 2.65.28.404.452.649.378.698zm433.472-101.421c-4.062.498-7.265 3.773-9.284 7.332-.977 1.721-1.758 3.543-2.54 5.364-.834 1.945-1.669 3.89-2.74 5.711-5.113 8.69-14.826 13.441-24.135 17.323-1.606.669-4.417.354-3.917-1.31 15.241-2.891 28.362-14.952 32.516-29.89.49-1.761-1.8-3.246-3.568-2.78-1.599.421-2.737 1.754-3.764 3.076l-.321.416c-8.49 11.036-20.677 20.367-34.592 20.969-.984.043-2.394-.557-1.961-1.443 10.307-.345 20.022-5.429 27.675-12.337 7.653-6.909 13.488-15.567 18.948-24.311.845-1.353 2.872-1.064 4.382-.55a62.043 62.043 0 0113.208 6.331c2.219 1.407.462 5.162-2.061 5.898-1.449.423-2.962.321-4.483.217-1.125-.076-2.253-.153-3.363-.016zm-3.958-8.612l-.356-.109c-1.084-.31-2.294-.482-3.167.19-.338.261-.58.62-.803.988l-2.901 4.889a13.25 13.25 0 014.289 1.832c1.068.7 2.538.726 3.631.065 1.092-.659 1.751-1.974 1.626-3.244-.046-.474.731-.602 1.055-.254.243.26.315.617.388.973.023.12.048.241.079.357.122.46.498.956.964.861a2.257 2.257 0 00.687-1.766c.169-.672 1.218-.073 1.38.601.162.673.467 1.631 1.136 1.45.983-.242 1.293-1.612.814-2.504-.48-.892-1.444-1.397-2.364-1.823a54.606 54.606 0 00-6.458-2.506zm-8.815 7.947a7.5 7.5 0 005.858 2.154c-1.312-1.652-3.544-2.514-5.627-2.195l-.231.041zm-108.42 151.701c-7.287 2.059-15.518.435-21.475-4.238-5.392 2.824-10.966 5.564-16.99 6.448-6.023.884-12.654-.357-17.009-4.609.719 1.558 1.453 3.174 1.476 4.89.022 1.716-.866 3.569-2.492 4.119-2.684.91-5.028-1.957-6.421-4.424-.763 1.899.023 4.035.788 6.114.873 2.37 1.718 4.663.201 6.438-1.58 1.847-4.577 1.374-6.751.284-8.145-4.083-11.971-14.36-10.207-23.294 1.765-8.936 8.192-16.418 15.846-21.359-5.196-3.806-8.998-9.474-10.546-15.725 1.058 1.365 1.843 2.951 2.628 4.537.785 1.586 1.57 3.171 2.629 4.537 1.004 1.296 2.281 2.37 3.559 3.444l.001.001c1.277 1.074 2.555 2.148 3.56 3.444.256.331.478.887.114 1.093-7.338 4.166-13.614 10.803-15.696 18.976-2.082 8.174.815 17.821 8 22.243 1.267.78 2.777 1.406 4.215 1.026 1.438-.38 2.516-2.184 1.691-3.42-2.33-3.488-2.614-8.242-.714-11.982l6.021 6.747c1.384-.355 1.726-2.216 1.358-3.597a14.693 14.693 0 00-.436-1.3l-.001-.001c-.343-.928-.686-1.854-.594-2.825.135-1.422 1.993-2.695 2.974-1.656 3.916 4.148 10.206 5.325 15.838 4.412 5.633-.913 10.791-3.615 15.837-6.279l5.955-3.142c-.43 1.717-1.822 3.158-3.524 3.647 5.748 4.128 13.435 5.424 20.221 3.412 1.168-.347 2.368-.826 3.126-1.781s.881-2.507-.035-3.312a3.897 3.897 0 00-.361-.27c-.246-.169-.489-.337-.628-.594-.212-.388.115-1.04.52-.862 2.293-.16 3.707 2.919 2.772 5.017-.933 2.099-3.239 3.216-5.45 3.841zm-40.684-30.462c-1.309-.421-2.778.481-3.347 1.733-.569 1.251-.407 2.722.023 4.027.137-1.472.324-2.583.882-3.55.24-.418.985-.811 1.639-1.157.846-.448 1.542-.816.803-1.053zm-1.11-3.7c1.91-.475 4.068.259 5.289 1.802 1.222 1.542 1.442 3.809.542 5.558-.217-.261-.268-.735-.332-1.329-.19-1.755-.492-4.559-5.499-6.031zm-1.656 13.559c-.605.754 1.5 2.747 4.792 1.373.61-.256.112-.285-.672-.33-.715-.042-1.669-.098-2.238-.352-.481-.214-.727-.558-.912-.815-.274-.381-.411-.573-.97.124zm6.67 2.521c2.109-1.05.786 2.03-3.627 1.652-.398-.033-.918-.187-.915-.588.002-.141.375-.173.956-.223.901-.079 2.302-.201 3.586-.841zm-13.016-5.844c.794.774 1.95.795 2.721.646.47-.091.701-.511.269-.646a3.854 3.854 0 00-.467-.091c-.459-.071-1.092-.172-1.517-.428-.273-.164-.428-.725-.562-1.206-.136-.495-.25-.905-.444-.713-.381.38-.794 1.662 0 2.438zm.705 2.621c.384.584-1.079.384-1.394 0-.315-.384-.625-1.826-.097-1.826.152 0 .205.227.267.499.058.252.125.542.287.726.316.358.528.411.683.45.105.026.185.046.254.151zm65.833-2.902c.788 1.575-.592 3.342-1.923 4.497a48.65 48.65 0 01-18.783 10.088c7.442.051 14.849-3.132 19.931-8.564 2.366-2.528 3.878-7.273.826-8.906 3.623-1.2 7.911-3.705 7.357-7.478-.198-1.348-1.022-2.509-1.822-3.612l-.475-.652c-4.943-6.752-10.989-13.892-19.278-14.395 4.77-2.675 10.453 1.124 14.658 4.621l1.234 1.02c5.567 4.575 11.393 8.928 17.997 11.788 7.093 3.072 15.249 4.3 22.607 1.93l20.591-6.632c3.973-1.314 8.654-3.783 8.293-7.909-.199-2.274-2.275-4.228-4.556-4.292-2.282-.063-4.462 1.773-4.788 4.032l-.447-3.512c-1.104-.943-2.865-.134-3.753 1.014-.337.435-.617.915-.896 1.394-.46.788-.917 1.571-1.616 2.142-2.43 1.988-5.659.354-8.559-1.363l-1.808-1.079c-5.154-3.026-11.262-3.49-17.293-3.947-1.301-.099-2.6-.198-3.886-.322a87.003 87.003 0 01-24.512-6.055c7.17 5.876 16.537 6.862 25.986 7.857 4.763.502 9.545 1.005 14.077 2.138 3.595.898 7.569 2.73 8.451 6.327 1.281 5.224-4.927 9.269-10.286 9.759-8.764.799-17.304-2.927-24.744-7.681l-.838-.542c-2.692-1.767-5.302-3.667-7.91-5.567l-.001-.001-.001-.001c-4.787-3.486-9.569-6.969-14.852-9.617 5.457.275 9.442-3.674 13.513-7.708 2.196-2.175 4.417-4.377 6.906-5.952 7.317-4.631 16.66-3.577 25.272-2.089l1.353.238c-2.026-9.806-6.973-18.989-14.048-26.076l12.158 23.889c-12.801-4.262-28.152 1.064-35.556 12.336 5.715-19.277 19.311-36.092 36.969-45.723 5.69 2.128 10.496 5.924 15.294 9.714h.002c1.548 1.224 3.095 2.447 4.672 3.612 6.46 4.776 14.316 8.824 22.225 7.402 5.688-1.022 10.473-4.719 14.723-8.672l.684-.643a141.078 141.078 0 0014.064-15.461c4.702-6.009 10.481-13.144 18.061-12.248 1.338.158 2.64.575 3.936.991 1.792.574 3.574 1.147 5.434 1.027 3.203-.206 6.148-4.505 3.633-6.501l-12.907-10.24c-1.261-1-2.717-2.059-4.314-1.852-1.135.148-2.079.913-2.956 1.648l-2.899 2.433c-6.758 5.689-13.434 11.496-19.297 18.093-.38.427-.762.861-1.147 1.298-4.753 5.399-9.912 11.256-16.972 11.679-6.887.412-12.676-4.558-17.966-9.1-.266-.228-.53-.456-.794-.681l-.985-.835a133.572 133.572 0 00-17.915-12.671c-5.574-3.29-11.755-6.253-18.213-5.804-7.555.526-13.928 5.575-19.386 10.88l-.826.81c-2.677 2.63-5.88 5.471-9.562 4.909l-.294-.039c-3.71-.422-7.189 1.879-9.985 4.454l-.436.409a56.774 56.774 0 00-15.412 25.667c-15.949-4.269-33.435-2.508-48.213 4.853-3.723 1.855-7.353 4.117-9.945 7.369-3.701 4.644-4.786 10.533-5.881 16.474l-.001.001c-.798 4.334-1.602 8.697-3.431 12.624-.541 1.162-1.176 2.296-1.809 3.431-1.486 2.656-2.969 5.307-3.242 8.299-.389 4.269 3.599 9.223 7.553 7.564 3.962-.624 6.059-6.205 3.486-9.28 1.603 1.148 3.838 1.344 5.617.495l-4.133-7.627a57.325 57.325 0 0018.044-15.09c1.997-2.538 5.709-3.179 8.844-2.4 2.687.668 5.057 2.183 7.326 3.794l1.129.81c-1.316.955-.558 3.496 1.065 3.577-1.047-4.264 3.218-8.741 7.59-8.326 4.373.415 7.684 5.064 7.112 9.416-2.308 5.717-8.021 8.979-13.671 12.205-6.13 3.501-12.185 6.959-13.74 13.466-1.565 6.555 3.493 13.896 10.178 14.772 6.685.877 13.466-4.912 13.644-11.649 0 0 .99.102 1.34-.947.552-1.652 1.074-3.482 1.592-5.296.974-3.411 1.931-6.763 3.037-8.766 3.099-5.616 8.867-10.062 15.282-10.217 2.037-.049 4.062-.352 6.084-.653 2.583-.386 5.163-.77 7.762-.627 4.634.255 9.715 2.967 10.384 7.559a35.338 35.338 0 00-15.569.488l17.937 2.133c3.94.468 4.676 6.563 1.869 9.365-2.647 2.641-6.679 3.075-10.454 3.243l-.684.028c.66 1.345 2.3 1.484 3.942 1.624 1.638.138 3.277.277 3.946 1.614zm95.418-78.345c-5.562 6.171-12.062 12.803-20.367 13.113-7.26.271-13.611-4.406-19.486-8.732l-.434-.32-1.403-1.024a246.967 246.967 0 00-20.361-13.285c-5.42-3.168-11.654-6.228-17.734-4.656l9.625 3.027c-1.624.869-2.202 3.237-1.162 4.756.223-2.275 2.855-3.721 5.114-3.365 2.26.355 4.098 2.013 5.497 3.821-12.133 4.65-22.455 13.856-28.455 25.376-1.115 2.143-2.085 4.359-3.056 6.575-1.315 3.002-2.629 6.003-4.303 8.816-2.91 4.89-7.217 9.339-12.759 10.635-.777.181-1.573.301-2.367.42-1.593.238-3.182.476-4.599 1.214-.124.064-.252.132-.382.201l-.111.059c-1.664.888-3.716 1.984-4.742.539a10.866 10.866 0 00-7.231-4.407c4.75-15.953 16.973-29.51 32.356-35.889.871-.361.537-1.663.062-2.477l-6.997-11.966c-.646-1.105.11-2.609 1.249-3.194 1.138-.587 2.496-.499 3.766-.341a44.15 44.15 0 0122.219 9.464c1.013.822 2.673 1.63 3.414.556-7.224-7.281-17.558-10.658-27.726-12.018 8.79-.859 17.88 1.908 24.7 7.517l.331.272c1.629 1.322 3.601 2.727 5.48 1.917-7.615-7.302-18.03-11.611-28.581-11.826 2.172-1.614 4.199-3.408 6.226-5.202l.001-.001.001-.001c2.059-1.822 4.119-3.643 6.328-5.277 4.387-3.242 9.629-5.773 15.075-5.455 3.953.232 7.66 1.936 11.158 3.792a114.795 114.795 0 0120.719 14.096c.44.375.882.756 1.327 1.14l.034.029c6.048 5.21 12.647 10.893 20.464 10.159 4.768-.447 8.991-3.327 12.347-6.74 1.856-1.889 3.51-3.958 5.167-6.027l.001-.002c1.336-1.67 2.673-3.341 4.116-4.918 2.083-2.276 4.494-4.416 7.455-5.285 2.96-.868 6.568-.149 8.326 2.385l-20.302 22.529zm-191.585 42.264c1.072-5.864 2.132-11.662 6.097-15.931 1.941-2.091 4.425-3.596 6.954-4.918 12.937-6.763 28.023-9.337 42.472-7.247 3.536.511 7.917 2.494 7.859 5.85-.021.205-.041.41-.059.615.036-.21.056-.415.059-.615 1.44-14.03 9.617-27.229 21.562-34.746a39.19 39.19 0 009.199 20.063c-12.997 5.471-23.788 15.992-29.586 28.842l-.092.202c-1.646 3.603-4.258 8.026-8.071 7.13l1.888-11.659c.173-1.069.334-2.226-.174-3.184-.566-1.068-1.777-1.561-2.956-1.916l-.415-.12c-6.834-1.934-14.501-3.791-20.743-.402-3.302 1.792-5.672 4.797-7.888 7.881l-1.645 2.31a117.704 117.704 0 01-13.056 15.274c-1.924 1.896-4.003 3.781-6.58 4.597-2.575.815-5.775.267-7.304-1.96 1.22-3.182 1.851-6.635 2.479-10.066zm42.119 45.43c-4.058 1.504-7.36.763-10.527-1.081-1.356-.789-2.632-1.804-3.396-3.173-1.144-2.054-.972-4.603-.312-6.86a17.806 17.806 0 015.718-8.674c1.874-1.547 4.033-2.683 6.191-3.818h.001c.745-.392 1.489-.784 2.222-1.192a51.398 51.398 0 0017.833-16.574c.899-1.366 2.793-1.809 4.378-1.406 1.585.404 2.907 1.489 4.05 2.659.818.836 1.425 2.501.333 2.924-7.643 2.957-13.797 9.519-16.256 17.333-.067.213-.132.429-.197.644-.374 1.236-.752 2.487-1.554 3.487-.942 1.174-2.832 5.311-1.868 7.271 0 0-2.559 6.956-6.616 8.46zm10.603-61.896c1.238.277 2.586.676 3.266 1.747.556.877.521 1.992.433 3.027a49.16 49.16 0 01-2.556 12.022c-.228.656-.932 1.444-1.446.977-.583-2.937-3.267-5.325-6.254-5.562-2.986-.237-6.014 1.698-7.053 4.506-.205.555-.926.76-1.496.607-.429-.114-.794-.373-1.144-.653l-.347-.281c-3.557-2.889-8.372-4.171-12.896-3.435a44.768 44.768 0 019.021-10.824c1.454-1.269 3.032-2.467 4.868-3.062 1.729-.56 3.586-.554 5.401-.462 3.432.174 6.85.64 10.203 1.393zm162.212-51.591a11.295 11.295 0 00-6.604-3.426l2.841-3.606c.901-1.131 1.953-2.291 3.374-2.469 1.025-.129 2.033.291 2.966.736a43.317 43.317 0 018.74 5.531c.894.729 1.793 1.543 2.181 2.628.389 1.086.076 2.506-.965 3.003-1.041.497-2.541-.59-2.114-1.662l.041-.12c.175-.609-.1-1.329-.652-1.649l-1.005 1.928c-.092.168-.201.331-.367.422-.671.371-1.217-.671-1.259-1.436l-.009-.107c-.072-.753-.467-1.715-1.161-1.48-.093 1.291-1.017 2.484-2.244 2.898-1.227.413-2.685.023-3.542-.947l-.221-.244zm-216.609 95.14l-1.214-4.604c-.577-.161-1.141.416-1.223 1.011-.054.395.034.786.153 1.172l.187.575a9.815 9.815 0 01-.044 6.052 18.019 18.019 0 01-1.821-7.945c-.784-.43-1.319.884-1.262 1.776l.339 5.329c-1.645-1.482-2.226-3.886-1.944-6.083.281-2.196 1.312-4.224 2.473-6.11.605-.985 1.276-1.972 2.239-2.611.963-.64 2.289-.859 3.273-.252.818.505 1.197 1.402 1.582 2.31.29.687.584 1.381 1.072 1.919.174.19.376.384.581.583.795.766 1.645 1.585 1.089 2.411a21.893 21.893 0 01-4.639-3.816 15.552 15.552 0 001.276 9.043c.27.572-.621 1.117-1.182.824-.56-.293-.774-.973-.935-1.584zm164.433-15.062c.877-.775 1.679-1.485 2.067-1.292 1.13.563-1.94 3.04-3.565 3.74.117.784 1.256.432 1.921 0 .666-.434 2.528-.9 2.163-.429-2.271 2.938-6.658 5.272-10.713 5.729-1.644.184-3.677-.254-4.2-1.823-.479-1.43.586-2.842 1.71-3.906l.271-.247c.473-.423 1.232-.836 1.668-.375 1.159 1.226 3.184.223 4.519-.809 0 0 3.469-3.345 4.051-3.131.578.214-1.731 3.985-1.731 3.985.572-.321 1.224-.898 1.839-1.442zm-16.605 3.105c.416-.094.848.073 1.206.303 1.303.836 1.926 2.599 1.437 4.069-.491 1.469-2.047 2.506-3.592 2.394-.22-.016-.448-.057-.62-.195-.361-.288-.315-.84-.235-1.295l.582-3.328c.141-.802.426-1.767 1.222-1.948zm-73.479-7.554a16.463 16.463 0 016.746.268c-.126.907-1.186 1.318-2.082 1.504a26.442 26.442 0 01-8.428.363c.703-1.32 2.289-1.887 3.764-2.135zm140.109-73.778l-5.865-3.462c2.89-.431 5.972 1.086 7.391 3.639-.406.371-1.052.103-1.526-.177zm-128.523 69.431a89.48 89.48 0 00-7.365 2.292c2.514 1.389 6.084.279 7.365-2.292zm-24.304-3.143c.684.141.373 1.217-.173 1.654-1.662 1.326-4.187 1.44-5.962.27l6.135-1.924zm156.08-80.302c.403-.095.818.067 1.194.237a22.02 22.02 0 016.583 4.576l-8.428-4.301a.995.995 0 01.651-.512zm-128.411 23.239l.083.058a5.148 5.148 0 012.277.186 10.03 10.03 0 01-2.596 3.137 3.384 3.384 0 01.236-3.381zm144.229-11.82l.019.053c.93.378 1.565 1.388 1.5 2.391a9.421 9.421 0 01-4.308-4.668 5.4 5.4 0 012.789 2.224zm-174.514 73.529l-.139.19c-.486.66-1.065 1.377-1.879 1.472-.815.094-1.649-.959-1.075-1.544a4.193 4.193 0 013.093-.118zm-57.684 8.174c.726.17 1.547.699 1.433 1.436a25.042 25.042 0 01-4.894-1.146 5.692 5.692 0 013.461-.29zm154.583-.141c-.378.163-.72-.526-.361-.727 0 0 2.483-4.351 2.59-1.305.053.758-1.551 1.686-2.229 2.032zm-104.873 22.338c.184-1.321.531-3.81 1.237-3.81 1-.106.615 1.596.344 2.796-.074.331-.141.623-.166.829-.092.72-.764 1.286-1.536.939.031-.105.069-.383.121-.753v-.001zm-232.642 45.652c5.092.44 10.203.65 15.313.63-.363 4.802 3.545 9.532 8.332 10.084 4.786.551 9.669-3.165 10.409-7.924.297-1.912 2.885-2.244 4.815-2.094l12.282.956c2.104.163 5.083-.499 4.856-2.598l-1.391-12.855c-.125-1.159.279-2.85 1.423-2.62 4.875.978 10.201-2.757 10.868-7.682.668-4.923-3.544-9.97-8.514-10.126-2.387-.074-3.523-3.196-2.903-5.502.332-1.241.966-2.363 1.599-3.487.546-.966 1.092-1.934 1.448-2.979.771-2.26.124-5.409-2.202-5.955a129.319 129.319 0 00-54.016-1.023l-.326.065c-.98.196-1.962.44-2.808.963-2.782 1.722-2.996 5.516-2.86 8.863l.091 1.861a131.512 131.512 0 01-2.526 32.236l-.048.24c-.484 2.413-.878 5.17.734 7 1.195 1.355 3.106 1.72 4.93 1.901l.494.046zm31.33 2.589c.142.695-.035 1.419-.315 2.071l-.089.199c-1.644 3.468-6.536 4.955-9.814 2.926-3.341-2.066-4.16-7.259-1.618-10.253a87.783 87.783 0 01-19.477.151c-2.003-.209-4.621-1.289-4.212-3.26a146.453 146.453 0 002.605-41.297c-.198-2.5 2.881-3.797 5.35-4.25a128.969 128.969 0 0148.282.354c2.031.404 4.646 1.946 3.746 3.811a26.098 26.098 0 00-2.413 14.226c.141 1.235 1.108 2.851 2.187 2.233 2.905-1.668 7.108-.331 8.515 2.708 1.406 3.037-.296 7.105-3.448 8.239-3.151 1.133-7.055-.92-7.908-4.157a65.635 65.635 0 00.801 20.039c.448 2.283-2.877 3.144-5.198 2.971l-18.528-1.379c-.568.894.014 1.818.626 2.79.382.606.775 1.231.908 1.878zm95.873-41.851l36.291.73.592.015c1.09.034 2.188.129 3.17.587 2.218 1.035 3.235 3.586 3.909 5.938 3.601 12.555 3.157 26.237-1.251 38.532l-.186.503c-.574 1.513-1.324 3.021-2.678 3.872-1.116.701-2.475.847-3.798.918l-.283.014c-5.396.256-10.811.118-16.187-.413 2.799-1.722 3.507-5.916 1.729-8.681-1.778-2.764-5.534-3.918-8.697-3.021-1.928.548-3.724 1.864-4.421 3.742-.699 1.878-.024 4.29 1.758 5.207 1.232.634 1.02 2.631-.059 3.502-1.079.869-2.579.931-3.965.953l-18.207.295c-1.369.023-2.808.028-4.01-.627-1.703-.929-2.486-2.931-2.967-4.811a32.44 32.44 0 01-.455-13.925c1.035 3.634 5.515 5.841 9.03 4.447 3.513-1.393 5.261-6.07 3.522-9.425-1.739-3.354-6.57-4.624-9.736-2.558l-.131-1.173c-.454-4.11-.807-8.273-.017-12.321.865-4.433 3.332-8.787 7.376-10.802 2.95-1.468 6.357-1.55 9.671-1.498zm39.615 3.795c-.909-.546-2.004-.64-3.07-.685l-.266-.011a917.894 917.894 0 00-33.882-.639l-3.765.005c-2.383.009-4.843.043-7.022 1.002-3.254 1.432-5.362 4.753-6.222 8.2-.86 3.448-.654 7.06-.442 10.606 5.72-1.574 11.874 4.235 11.195 10.127-.679 5.892-7.214 10.147-13.037 9.01-.264 1.861-.524 3.793.023 5.593.547 1.798 2.144 3.425 4.024 3.365l16.881-.543c1.045-.034 2.489-.574 2.186-1.575-1.725-5.679 3.251-12.309 9.189-12.242 5.937.068 10.763 6.807 8.911 12.446a32.507 32.507 0 0011.339.517c1.224-.161 2.502-.42 3.44-1.224.923-.789 1.376-1.983 1.761-3.134 3.917-11.733 4.346-24.606 1.218-36.574-.404-1.547-.965-3.212-2.261-4.114l-.2-.13zM208.13 360.714a116.386 116.386 0 01.007-35.341l.091-.565c.448-2.653 1.232-5.453 3.45-6.915 1.66-1.093 3.757-1.175 5.757-1.176l15.31.042c.696.002 1.46.028 1.984.487.524.459.51 1.514-.162 1.699-1.604.445-2.525 2.293-2.331 3.945.195 1.651 1.27 3.082 2.531 4.166 3.01 2.585 7.688 3.504 11.019 1.349 3.331-2.156 4.114-7.71.958-10.114a456.772 456.772 0 0121.456.067l2.681.079c.867.028 1.825.098 2.43.718.455.466.605 1.143.707 1.785a23.406 23.406 0 01-2.427 14.569c-.374.706-1.242 1.482-1.834.945-2.512-2.279-6.737-1.969-9.308.245-2.57 2.213-3.565 5.891-3.11 9.252.437 3.234 2.796 6.689 6.058 6.526.919-.046 1.875-.363 2.812-.673l.001-.001c1.683-.558 3.308-1.096 4.554-.013l-3.27 14.605c-.582 2.595-1.625 5.673-4.226 6.229a102.335 102.335 0 01-45.675-.704l-.723-.183c-1.81-.473-3.612-1.086-5.024-2.293-2.458-2.103-3.225-5.534-3.716-8.73zm59.735-6.313c-4.248 1.997-9.783.284-12.442-3.584-2.658-3.867-2.399-9.394.33-13.213 2.728-3.818 7.631-5.848 12.31-5.449l.39.034c.655.056 1.328.08 1.885-.247.704-.415 1.004-1.267 1.2-2.061a19.266 19.266 0 00-.124-9.669l-19.792.145c.36 5.491-4.163 10.85-9.639 11.421-5.476.57-11.007-3.742-11.786-9.19l-.11-.81c-.117-.817-.3-1.624-.911-2.143-.429-.364-.992-.508-1.548-.618l-.209-.041c-5.758-1.088-13.059-1.539-16.081 3.479-1.029 1.709-1.305 3.754-1.515 5.737a132.318 132.318 0 00.849 34.247l.086.53c.287 1.684.736 3.413 1.99 4.543.862.776 1.993 1.161 3.116 1.478l.28.078a96.089 96.089 0 0044.249 1.533l.81-.167c.718-.151 1.464-.325 2.028-.794.735-.611 1.018-1.596 1.263-2.519l3.371-12.72zm106.81 28.94s.082-2.276.37-3.024c.518-1.351 2.049-3.271 2.049-3.271a30.598 30.598 0 01-.408 1.65c-.527 1.967-1.109 4.14-.225 5.747.681 1.24 10.653 7.772 14.08 9.303 14.657 6.546 29.386 12.47 44.184 18.422v.001h.003l.009.004c6.048 2.432 12.108 4.87 18.179 7.355-10.432-1.27-20.037-6.125-29.397-10.903-2.021 11.202 4.225 22.496 12.651 30.153 6.135 5.576 13.357 9.71 20.579 13.843v.001h.001c2.694 1.542 5.39 3.085 8.028 4.703l.97.6c9.362 5.858 18.315 13.252 22.449 23.451.758 1.87 3.086 2.935 4.998 2.286 1.912-.649 3.11-2.91 2.572-4.856 2.001 1.642.846 5.311-1.579 6.218s-5.204-.324-6.993-2.193c-1.349-1.41-2.29-3.13-3.23-4.849v-.001l-.001-.001v-.001l-.003-.006c-.306-.559-.612-1.119-.933-1.668-5.779-9.903-15.987-16.053-26.115-21.681l-4.755-2.631c-10.99-6.133-22.25-13.502-26.958-25.114-17.089 2.711-34.878.872-51.051-5.274-3.46-1.315-6.847-2.823-10.233-4.33-5.393-2.401-10.783-4.799-16.453-6.414-3.158-.899-7.513-.996-8.695 2.067-.001-.001-.002.001-.006.008-.033.06-.259.453-1.266.54-.473.04-.907-.788-1.042-1.337-.115-.154-.154-.587-.154-1.478 0-.48.978-2.578 2.82-3.875 1.28-.902 2.722-1.23 3.476-1.402.341-.077.542-.123.525-.175-.038-.121-1.348-.461-2.537.116-.919.446-1.789 1.034-2.588 1.575-1.236.836-2.306 1.559-3.127 1.464-1.113-.129-1.902-.648-1.915-1.768-.012-1.12.285-2.481 1.149-3.184a10.342 10.342 0 016.612-2.297c.515.007 1.085.08 1.42.47.336.39.171 1.167-.343 1.191-3.087.138-6.656.655-7.857 3.82-.35.921 1.859 1.069 2.713.578.495-.285.921-.668 1.348-1.053.308-.277.617-.554.952-.796a5.681 5.681 0 013.486-1.055c.498.018 1.047.133 1.34.535.295.403.087 1.134-.411 1.142-3.2.052-6.121 2.825-6.341 6.016.012.114.101.641.474.767.435.146.916-.209.935-.244 1.667-2.973 4.709-4.961 7.979-3.966 1.236.377 2.425.95 3.61 1.52 2.071.997 4.127 1.986 6.386 1.903l-1.356-7.185c-5.496-5.036-13.779-6.811-20.857-4.47-.758.25-1.576.613-1.886 1.348-.309.736.37 1.804 1.114 1.519-1.171 1.083-3.152-.755-2.706-2.288.446-1.531 2.127-2.32 3.672-2.721 8.67-2.252 17.311 1.674 25.661 5.467 1.55.704 3.091 1.404 4.619 2.059 17.003 7.285 36.214 9.322 54.369 5.767-.787 2.154-3.472 2.805-5.752 3.061-16.17 1.818-32.78-.406-47.901-6.414-1.847 2.345-.967 5.989 1.135 8.108 2.102 2.12 5.075 3.083 7.936 3.938 16.033 4.789 33.031 8.452 49.414 5.046l-2.656-15.526-.054-.283c-.131-.62-.372-1.26-.951-1.457l-.147-.05c-20.998-7.127-37.002-12.56-57.781-32.358a3.509 3.509 0 01-.122-.122c-.153 5.95-2.042 7.259-9.914 5.637-17.178-3.538-34.766-5.392-52.104-2.956a194.51 194.51 0 014.918-19.195c-5.641 1.819-12.302-3.349-11.936-9.262.364-5.914 7.609-10.224 12.984-7.726 1.846-4.258 1.964-9.236.319-13.577-.788-2.081 2.355-3.283 4.583-3.283l12.308-.003c1.721-.001 4.119-.799 3.692-2.465-1.013-3.95 1.704-8.463 5.671-9.418 3.894-.936 8.279 1.729 9.284 5.592l.053.215c.934 4.148 6.191 5.466 10.445 5.385l2.117-.051c3.679-.078 7.513.041 9.976 2.613 2.945 3.076 2.287 7.975 1.316 12.152l-.065.277c-.474 1.995-1.164 3.617-1.858 5.248-1.322 3.106-2.66 6.247-2.541 12.075.048 2.375.134 4.555.231 6.552.342-1.402.643-2.329.643-2.329s40.117 29.855 64.893 33.908c2.969-2.622 1.255-7.731-1.735-10.328-1.26-1.094-2.695-1.979-4.126-2.861-1.965-1.21-3.922-2.418-5.413-4.158-2.962-3.456-3.491-8.217-4.016-12.938-.57-5.135-1.136-10.22-4.816-13.529a20.993 20.993 0 00-1.028-.846l-.001-.001c-.788-.621-1.576-1.242-2.113-2.081-1.327-2.074-.674-4.961.934-6.827 1.607-1.866 3.958-2.908 6.284-3.72 4.829-1.685 10.123-2.626 15.054-1.268 4.93 1.357 9.347 5.462 9.832 10.55.935-2.024 2.989-3.486 5.209-3.71l-3.223 3.423 4.078.081-5.611 3.133c3.479 6.43 2.915 14.36.686 21.322-.273.851-.57 1.702-.867 2.554v.001l-.002.004c-1.192 3.417-2.393 6.862-2.085 10.427.378 4.384 4.274 8.863 8.531 7.966l.214-.05c5.117-1.292 10.721-.544 15.32 2.046 5.362 3.019 9.013 8.14 12.626 13.207a190.565 190.565 0 002.53 3.493c4.009 5.359 8.754 10.343 14.685 13.448 5.931 3.104 13.203 4.129 19.381 1.551 1.136-.474 2.228-1.063 3.318-1.652 1.851-.998 3.697-1.994 5.745-2.418 3.252-.674 7.394.917 7.78 4.215-1.683-2.81-5.669-3.308-8.805-2.361-1.77.535-3.403 1.409-5.037 2.284l-.001.001c-1.262.675-2.525 1.351-3.853 1.872-6.654 2.611-14.402 1.029-20.527-2.653-5.934-3.567-10.582-8.894-14.775-14.411l-.405-.535c-.424-.565-.848-1.134-1.271-1.702l-.001-.002-.002-.001v-.002l-.002-.001-.002-.002-.001-.001v-.001c-2.949-3.961-5.918-7.95-9.81-10.963-4.365-3.379-10.228-5.375-15.483-3.753l-.321.103c-5.027 1.702-10.352-3.105-11.257-8.333-.904-5.227 1.228-10.45 3.315-15.328 2.152-5.032-1.801-10.902-6.783-13.17-4.624-2.105-10.176-2.057-14.763.126-1.486.707-1.755 2.656-1.705 4.323l.006.184c.258 5.882 1.83 12.065 6.126 16.093 1.277 1.198 2.754 2.165 4.227 3.131 1.843 1.208 3.683 2.414 5.123 4.065 2.593 2.97 2.991 8.533-.61 10.14a161.125 161.125 0 0118.298 4.419c-32.315-3.304-62.028-18.539-83.359-36.94a10.353 10.353 0 00-.932 2.678c.05.922.1 1.8.149 2.637.068 1.181.131 2.277.18 3.292 1.027 3.378 3.428 6.355 6.724 7.664a8.58 8.58 0 012.142-6.611c-1.04 2.324-2.691 6.781 3.747 11.294zm49.637-45.469a50.462 50.462 0 00-8.723-.851 1.954 1.954 0 00-.211 1.214 27.617 27.617 0 019.434 2.523c-1.238 1.237-3.283.496-4.943-.105l-.098-.036a17.02 17.02 0 00-8.919-.711c-1.512.287-3.025.806-4.189 1.812-1.165 1.006-1.927 2.572-1.668 4.088.332 1.937 2.155 3.261 3.975 4.006 4.51 1.846 9.916 1.326 13.992-1.347.33-.216.795.144.814.539.02.394-.247.743-.526 1.021-1.625 1.617-4.04 2.13-6.329 2.264a51.69 51.69 0 01-2.01.065h-.001c-1.628.032-3.256.064-4.828.462.212 1.296 1.832 1.742 3.143 1.838a37.029 37.029 0 0014.834-1.967c1.187-.415 2.279.774 2.979 1.818l5.108 7.619c1.678-1.579 1.577-4.307.785-6.47-.309-.845-.702-1.661-1.095-2.474-.613-1.27-1.225-2.536-1.512-3.909-.158-.757-.216-1.534-.272-2.309-.081-1.089-.161-2.175-.521-3.2-1.271-3.608-5.456-5.19-9.219-5.89zm-61.701 69.542l-4.636-2.662c-.514-.295-1.463-.345-1.411.246-.158 2.392.038 5.322 1.576 7.315.97 1.257 1.67 1.9 5.093 2.749l-.252-6.698c-.013-.356-.062-.772-.37-.95zm70.598-36.441c.565-.327.924-.909 1.259-1.467.6-.999 1.218-2.057 1.246-3.221.026-1.164-.78-2.435-1.944-2.481-.58-.023-1.13.252-1.603.588a6.266 6.266 0 00-2.285 3.033c.536.772 1.749.083 2.288-.687.54-.77 1.339-1.743 2.198-1.359a14.096 14.096 0 01-2.913 5.341c.359.543 1.191.58 1.754.253zm9.276 56.582c-1.289-2.046-2.682-4.256-4.979-4.921 5.096 9.587 12.996 17.665 22.469 22.978 3.308 1.854 6.796 3.377 10.282 4.9 4.86 2.123 9.714 4.242 14.062 7.254a41.022 41.022 0 0113 14.777c-1.198-8.387-8.215-14.808-15.706-18.773-3.391-1.796-6.953-3.243-10.515-4.689v-.001c-4.305-1.748-8.608-3.496-12.602-5.855a47.184 47.184 0 01-16.011-15.67zm16.009 2.837l.142.316c.627 1.45 1.062 3.273-.116 4.256-.938.782-2.361.483-3.467-.036a11.509 11.509 0 01-5.488-5.501 7.257 7.257 0 003.709-1.99c.834-.839 2.308-.67 3.247.05.94.719 1.473 1.833 1.973 2.905zm-.76 3.433c1.205-2.164-1.254-5.356-2.454-5.563-.524-.09-1.062.428-1.642.983-.595.571-1.232 1.181-1.935 1.217 0 0 4.825 5.526 6.031 3.363zm60.809 6.221c29.277-.962 57.858-15.218 76.231-38.021.951-1.18 2.834-1.2 4.156-.458 1.321.741 2.215 2.044 3.06 3.303.921-.135.949-1.564.313-2.245-.312-.336-.705-.58-1.098-.823-.405-.251-.809-.501-1.125-.851-1.279-1.416-.595-3.644.154-5.397l3.34-7.818c.448-1.047 1.148-2.269 2.287-2.253.833.012 1.475.708 2.004 1.352a229.447 229.447 0 0116.003 22.031c-3.016.466-5.916-1.019-8.776-2.484-3.195-1.636-6.341-3.247-9.545-2.086-2.792 1.011-4.438 3.822-5.916 6.396-4.835 8.421-10.376 16.532-17.392 23.247-16.296 15.593-39.036 22.342-61.189 26.61 13.703 5.184 28.798 6.638 43.239 4.165 8.264-1.415 16.505-4.203 22.946-9.567 2.608-2.173 4.871-4.724 7.122-7.264l16.589-18.717c.972-1.096 2.764-.044 3.669 1.107.905 1.152 2.132 2.587 3.512 2.096a11.458 11.458 0 00-4.814-5.276c-.125-2.64-.204-5.468 1.2-7.708 1.405-2.239 4.905-3.33 6.727-1.415a327.819 327.819 0 0117.154 19.534c-3.201.504-6.244-.874-9.263-2.241h-.001l-.001-.001h-.001c-.932-.421-1.862-.843-2.795-1.208-3.95-1.544-9.49-1.511-11.291 2.328-4.929 10.5-10.05 21.269-18.509 29.208-14.127 13.259-34.77 16.252-54.027 18.435-8.54.968-17.313 1.886-25.628-.288-6.052-1.581-11.559-4.728-16.984-7.842l-4.306-2.471c-1.267.317-.248 2.237.876 2.9 7.208 4.249 14.638 8.579 22.904 9.88 2.105.332 4.238.462 6.369.541a140.826 140.826 0 0057.591-10.022c7.594-3.054 15.324-7.134 19.495-14.175l14.697-24.809c.564-.95 1.183-1.954 2.182-2.426 1.217-.574 2.648-.207 3.94.168l13.777 3.999c1.408.409 2.716-1.241 2.57-2.699-.147-1.458-1.201-2.64-2.202-3.711l-12.705-13.591c-1.676-1.794-3.478-3.664-5.844-4.317-2.368-.653-5.411.496-5.874 2.906-1.366 7.115-6.228 12.978-10.921 18.498-7.264 8.546-14.826 17.327-24.908 22.244-14.457 7.051-31.541 5.003-47.371 2.138l10.265-2.988c5.081-1.479 10.169-2.961 15.094-4.895 19.106-7.504 35.38-21.983 45.052-40.081 1.678-3.142 3.653-6.771 7.159-7.402 2.882-.518 5.34 1.183 7.852 2.921 1.493 1.034 3.005 2.081 4.638 2.683 2.408.889 6.146-.376 5.58-2.878-.129-.566-.472-1.055-.807-1.528l-13.07-18.416c-1.813-2.556-4.531-5.442-7.514-4.483-2.398.771-3.297 3.537-4.09 5.976l-.072.222-.032.101-.038.113c-3.72 11.329-13.723 19.244-23.217 26.466-4.154 3.159-8.319 6.326-12.801 9-13.095 7.808-28.451 11.114-43.667 12.102-4.299.279-7.001 4.309-9.474 7.999-.293.439-.584.872-.874 1.294a39.672 39.672 0 01-17.16 14c1.154 1.274 3.254.512 4.712-.4a51.816 51.816 0 0016.965-17.309c.922-1.544 2.08-3.341 3.878-3.399zm-91.857-66.105c-.673 1.473-2.174 2.535-3.788 2.678-1.615.144-3.279-.636-4.202-1.967-.339-.49-.335-1.445.257-1.394 1.236 1.639 3.81 2.062 5.504.905.734-.501 2.008-1.082 2.229-.222zm-12.977-10.708c.146-1.235 1.188-2.307 2.418-2.49 1.229-.183 2.538.538 3.039 1.676-.899 0-1.503-.162-2.004-.298-1.021-.275-1.623-.438-3.453 1.112zm9.532 6.875l-1.399.6-.081-.046c-.363.691-1.432-.091-1.514-.867a8.695 8.695 0 01-.033-.502c-.031-.657-.064-1.341-.607-1.636-.68.979-.991 2.265-.595 3.389.395 1.124 1.598 1.976 2.77 1.764 1.172-.211 2.015-1.648 1.459-2.702zm1.68-9.536c1.771.142 2.242.238 2.73 1.402.096.228-.66.012-1.381-.193h-.001c-.53-.151-1.041-.297-1.179-.256-5.924 1.756-1.939-1.096-.169-.953zm-.499 3.058c.977.775.694 3.862-.749 3.282-.606-.243-1.329-4.927.749-3.282zm46.827 82.671c-.466-.582.063-1.62.808-1.583.329.213.553.58.591.97-.283.459-.866.71-1.394.6l-.005.013zm-13.303-6.018l1.017-.155.081-.029c.354-.661-.801-1.414-1.263-.824-.1.337-.038.72.165 1.008zm7.243 4.009c-.59.161-.67-.851-.338-1.364l1.408.64c-.217.38-.619.649-1.054.703l-.016.021zm-17.585-14.751c-.156-.387-.716-.535-1.042-.276l.089.09c-.282.369-.058.998.394 1.107.415-.04.715-.535.559-.921zm-30.935-62.557c-.567 0-1.16-.555-1.13-1.517.029-.963.29-1.853 1.13-1.38.84.472.584 2.897 0 2.897zM152.65 250.014c.342.449 1.122.252 1.422-.226.301-.476.263-1.084.209-1.645a75.905 75.905 0 00-6.211-23.539c-.946-2.12-1.94-4.764-.493-6.58 3.347 8.36 6.721 16.822 7.939 25.743.333 2.434.452 5.1-.906 7.148-1.358 2.049-4.742 2.834-6.25.894 2.32-.484 4.096-2.833 3.928-5.197 1.072.73 1.257 2.463.362 3.402zm27.048 161.074c12.142-.666 26.207-2.418 32.576-12.771 1.651-2.685 1.299-6.906 1.009-10.384-.233-2.794-.426-5.11.492-5.764 2.06-1.468 3.709 2.319 3.709 2.319.06-.251.13-.561.207-.911.576-2.579 1.635-7.332 3.301-6.439.684.367.449 2.677.287 4.265v.001c-.038.372-.072.704-.089.963-.039.245-.044.45-.015.595a.376.376 0 00.072-.04.07.07 0 00.034-.018.178.178 0 00.03-.031c.27-.227.638-.788 1.048-1.413h.001c.85-1.294 1.878-2.859 2.567-2.284 1.082.904-2.765 6.669-2.765 6.669s4.569-5.019 4.955-2.883c.385 2.136-10.02 21.426-19.413 28.991-9.393 7.565-22.628 11.801-34.595 10.284.267-4.743 1.842-10.888 6.589-11.149zm41.613-28.215a.644.644 0 01-.064.049c-.072.012-.08-.202-.057-.555.088-.559.349-1.323.766-2.054-.079.251-.157.493-.232.722-.334 1.022-.575 1.762-.325 1.705a1.048 1.048 0 01-.088.133zm2.261-4.353c-.672.426-1.216 1.094-1.616 1.793.624-1.974 1.255-4.462-.28-4.662-2.602-.337-5.145 3.896-4.694 6.146-.722-1.793-3.728-1.017-4.455.772-.559 1.373-.321 2.878-.085 4.371.071.453.142.904.192 1.35.782 7.136-4.571 13.805-11.06 16.883-6.117 2.901-13.06 3.309-19.851 3.52l-1.583.045c-3.877.102-8.076.013-11.035-2.461-3.048-2.548-3.045-8.595.783-9.664 9.718-2.712 17.13-12.176 17.431-22.256.09-2.979 2.023-5.457 3.891-7.852l.5-.645.41-.536c2.092-2.773 3.811-6.593 2.055-9.589-2.72 3.489-7.817 4.896-11.942 3.297-1.722-.667-3.247-1.782-4.763-2.89-2.029-1.482-4.042-2.953-6.487-3.321-4.78-.719-9.522 4.119-8.704 8.881-1.294-1.086-3.302.558-3.443 2.24-.082.989.178 1.951.44 2.918.183.678.367 1.358.434 2.051.077.807-.006 1.614-.088 2.422a18.101 18.101 0 00-.118 1.641c-.035 2.835 1.228 5.459 2.473 8.042l.001.003.001.003.372.776.333.708c1.418 3.071 2.469 6.724.958 9.751-1.51 3.026-6.65 3.973-8.106.921-7.136-14.958-23.312-25.143-39.893-25.118-19.198.029-36.47 12.674-47.784 28.176-1.411 1.933-2.792 4.016-3.1 6.389-.307 2.373.795 5.097 3.054 5.891 2.258.793 5.187-1.427 4.451-3.704 1.146 1.337 3.49.073 4.03-1.603.303-.942.3-1.935.296-2.931-.003-.778-.006-1.557.136-2.315.7-3.717 4.526-5.864 7.97-7.434l.694-.316c8.111-3.668 16.561-6.943 25.433-7.566 9.126-.641 18.863 1.894 25.134 8.55-8.557 2.03-13.526 10.611-17.487 18.538l-.55 1.105c-3.999 8.027-9.237 16.785-18.007 18.486.334 1.73 1.861 3.16 3.609 3.38l-32.151 19.105 2.467 3.058a252.04 252.04 0 01-26.433 33.804c-5.302 5.703-12.186 11.613-19.86 10.285-1.388-.239-2.734-.716-4.075-1.191-1.963-.695-3.917-1.386-5.978-1.327-3.47.098-6.951 4.317-4.596 6.865a88.864 88.864 0 0017.659 14.722l.168.106c.79.492 1.66.951 2.575.846.927-.107 1.68-.765 2.37-1.393l43.543-39.683c3.566-3.223 7.49-6.448 12.242-6.923l.4-.048c3.514-.489 6.408-2.709 9.312-4.935 1.263-.97 2.528-1.941 3.847-2.77 4.464-2.807 11.865-3.095 13.601 1.881.922 2.645-.285 5.334-1.475 7.986-.354.79-.708 1.576-1.003 2.357-1.283 3.401-.231 8.632 3.405 8.569l20.35-.36c.731-.008 1.501.033 2.07.481.596.467.804 1.246.918 2.009l.048.351a67.8 67.8 0 01-.313 18.766c-1.056 6.72-3.863 14.111-10.207 16.575-4.001 1.553-8.457.747-12.672-.218l-25.606-5.978c-.043-3.099 2.762-5.623 5.753-6.444 2.536-.696 5.199-.484 7.836-.273h.001l.486.038.93.069a60.906 60.906 0 0019.322-1.775l-9.077-22.704a77.692 77.692 0 006.033 21.885l-29.84.968c-2.599.073-5.483-.042-7.23-1.938-.448-.487-.822-1.085-1.193-1.679-.76-1.218-1.507-2.413-2.857-2.57-1.166-.135-2.223.644-3.117 1.406a58.854 58.854 0 00-14.168 17.927c1.259 3.114 5.428 3.985 8.666 3.091 1.895-.522 3.624-1.464 5.356-2.408 1.23-.669 2.46-1.339 3.753-1.862 7.213-2.914 15.143-.939 22.761 1.354l4.524 1.377c8.942 2.684 19.844 4.061 26.545-2.437 3.955-3.834 5.395-9.541 6.178-14.991 2.259-15.729.427-32.026-5.266-46.862 6.348-2.447 9.343-9.546 11.672-15.935l4.562-12.515c1.523-4.182 4.985-9.312 9.106-7.627 11.781 4.815 25.695 2.779 36.662-3.676 10.968-6.454 19.178-16.909 24.708-28.366l.148-.31c1.082-2.277 2.461-7.59 1.23-8.178-.46-.36-1.278.238-1.835.646-.302.22-.527.385-.578.312-.032-.043.069-.338.212-.755.563-1.64 1.779-5.182-1.839-2.894zm-77.955 70.25c-1.425 3.202-3.783 6.971-7.265 6.546-1.864-.228-3.271-1.634-4.537-3.079l-.68-.785c-7.356-8.535-17.35-14.209-27.394-19.43l-3.347-1.728c8.182-1.609 13.229-9.697 16.834-17.213l1.148-2.395c3.295-6.829 7.046-13.855 13.843-16.929.94-.426 2.018-.764 2.987-.411.146.054.305.115.47.178 1.196.46 2.736 1.052 2.712-.081-2.181-.879-2.54-4.059-1.282-6.044 1.149-1.813 3.139-2.86 5.109-3.761l.561-.254c-1.256-1.732-3.98-.276-5.403 1.323l-.117.129c-1.428 1.566-3.62 3.281-5.268 2.008-6.812-5.26-15.888-6.948-24.456-6.122-8.567.825-16.741 3.956-24.568 7.535-2.868 1.312-5.782 2.743-7.91 5.07-1.648 1.799-1.818 4.195-1.99 6.603-.05.706-.1 1.412-.188 2.104-.21 1.674-1.132 1.739-1.945 1.794-.434.031-.837.058-1.083.331a4.86 4.86 0 00-.18.267c-.487.748-1.806 2.772-2.401 2.57-.875-.296-.429-2.184-.429-2.184s-2.596.742-2.789 0c-.676-2.595 3.218-7.905 3.218-7.905 6.547-9.625 16.256-17.613 26.93-22.256 10.871-4.729 23.557-5.642 34.671-1.514 12.53 4.655 22.452 15.774 25.65 28.746.798 3.234 4.562 4.662 7.851 5.2l.335.053.598.094.005.001c3.035.474 6.262.979 8.196 3.295.571.682.413 1.693.217 2.56l-.057.251c-.721 3.093-1.98 6.555-4.987 7.494-2.734.853-5.972-1.349-6.182-4.204-.018-.251-.023-.517-.029-.787-.023-1.109-.047-2.277-.979-2.735l-15.869 35.665zm-25.848 16.918c-1.023-5.25-4.129-9.972-8.205-13.437a9.37 9.37 0 002.437 5.586 61.732 61.732 0 00-19.142 10.067c-1.53 1.19-4.132 2.276-5.029.557a38.303 38.303 0 00-15.885-15.999l27.71-15.915c1.252-.72 2.577-1.459 4.021-1.473 1.12-.011 2.183.417 3.196.916l.502.254a87.695 87.695 0 0127.121 21.731c1.849 2.216 2.71 5.055 3.443 7.863l3.295 12.872c.219.852.378 1.907-.29 2.48-.376.322-.905.378-1.399.415l-.578.045c-8.205.631-14.825 1.141-23.046-.045-1.226-2.35-.3-5.262.658-8.271.82-2.576 1.662-5.224 1.191-7.646zm-41.223-7.915a55.32 55.32 0 018.247 9.074c.257.355.521.752.494 1.189-.032.51-.446.903-.83 1.239l-35.815 31.331c-1.494 1.306-3.876 1.076-5.549.01-1.463-.934-2.51-2.367-3.47-3.826l-.407-.626c9.334-4.903 15.321-13.685 21.362-22.547 3.789-5.557 7.599-11.146 12.269-15.827.454-.455.965-.926 1.604-.998.79-.088 1.498.456 2.095.981zm104.296-87.39l.914.281c1.781.55 2.076 2.934 1.85 4.784-.939 7.657-5.7 15.236-13.041 17.615l-.263.088c-4.784 1.688-8.204 6.69-8 11.764-3.211.601-6.654-1.966-6.992-5.214-.067-.648.125-1.489.769-1.588 2.918-.448 5.6-2.238 7.135-4.758 1.534-2.521 1.889-5.725.945-8.521-.192-.571-.438-1.142-.683-1.715-.698-1.628-1.398-3.261-.908-4.902 1.118.103 1.33 1.635 1.213 2.751l-.013.136c-.091 1.101.103 2.512 1.171 2.659.704-1.616.851-3.424.996-5.22.183-2.266.365-4.511 1.665-6.317 1.487-2.064 4.154-3.014 6.699-3.044 2.227-.025 4.404.552 6.543 1.201zM21.922 499.475l.23-.265c1.282-.281 2.506 1.36 1.872 2.508-.408.736.845 1.465 1.544.997.7-.469.84-1.421.917-2.258.704-.22 1.313.585 1.445 1.309.035.193.057.39.08.589.06.552.12 1.105.47 1.52.473.565 1.728.273 1.522-.434-.307-1.056.94-1.918 2.03-2.074.261-.037.531-.059.803-.081.856-.07 1.719-.141 2.342-.697l.094-.076c.791-.56 1.77.477 2.367 1.399l.278.447c1.313 2.04 3.544 3.467 5.95 3.793.471.065.232.799-.115 1.126l-8.119 7.641c-.393.371-1.031.108-1.492-.175a67.996 67.996 0 01-13.21-10.55c-1.241-1.274-.189-3.309.993-4.719zm71.002 14.223c-.233.964-.9 2.043-1.889 1.969a18.745 18.745 0 00-7.08.842c.209-.97-.216-2.047-1.03-2.614-.596.851-.353 2.168.507 2.751l-2.27 2.242-1.087-2.497c-.536.143-.552.8-.514 1.404l.026.373c.108 1.581-1.233 3.117-2.813 3.224-1.582.106-3.117-1.237-3.222-2.817-.113-1.722 1.206-3.166 2.432-4.379l8.71-8.62c.185-.175.397-.34.647-.336.276.006.5.215.694.411l3.399 3.428c.659.665.242 1.682-.163 2.673-.418 1.02-.825 2.013-.036 2.566.768.044 1.408-.622 1.703-1.331.151-.363.242-.746.334-1.128.088-.368.176-.735.316-1.085.287-.713.905-1.393 1.674-1.376.77.016 1.363 1.115.768 1.602-.635.521-.815 1.366-.992 2.188v.001c-.036.172-.073.342-.114.509zm-59.544 3.811a62.784 62.784 0 01-20.148-17.099c.709-.671 1.774.042 2.459.802l.17.199a60.112 60.112 0 0018.808 15.413c-.059.571-.783.956-1.289.685zm37.541-1.602a101.543 101.543 0 0111.22-12.401c.632-.592 1.943-.991 2.102-.141a215.685 215.685 0 00-13.584 14.199c-.468-.406-.114-1.165.262-1.657zM44.88 504.825a13.007 13.007 0 01-5.987-4.394c-.569-.755-.927-2.065-.066-2.453.681-.307 1.335.337 1.81.961l.357.484a12.132 12.132 0 006.141 4.263c.005.647-.532 1.254-1.175 1.329-.367.043-.733-.066-1.08-.19zm116.113-131.166c1.112.026 2.054 1.185 1.852 2.278l.026.017a3.914 3.914 0 01-.285 2.366 5.573 5.573 0 01-1.593-4.661zm21.191.027c.141-.013.288-.026.438-.027.188-.002.405.031.609.062.55.086 1.011.157.576-.524-.597-.933-2.343-1.039-2.629.032.08.539.496.502 1.006.457zm1.406 4.616l.025-.096c.424-1.607.178-2.876-.993-2.876-.451.035-1.141 2.336-1.076 3.033.066.698.853 1.343 1.461.996.362-.205.478-.651.583-1.057zm-7.727-.488c-.817-1.133-.903-2.748-.211-3.961.103-.182.228-.359.409-.463.459-.263 1.071.093 1.274.58.201.489.113 1.042.022 1.562 0 0-.678 3.416-1.494 2.282zm173.002.034a127.48 127.48 0 00-45.752-2.713 42.779 42.779 0 003.36-19.647c-3.974 2.783-10.496-.482-10.648-5.329-.15-4.847 6.158-8.51 10.297-5.978 1.096.671 2.302-.72 2.741-1.928a19.225 19.225 0 00.041-12.878c-.573-1.607 1.854-2.478 3.56-2.445l14.478.287c.973.019 2.005.023 2.835-.483.83-.506 1.302-1.723.692-2.48-2.505-3.107.375-8.668 4.359-8.417 3.984.249 6.145 6.127 3.271 8.896-.536.516.506 1.182 1.25 1.199l18.931.435c3.766.087 6.426 4.097 6.58 7.858.13 3.182-1.001 6.231-2.118 9.241l-.291.787-.309.851a63.423 63.423 0 00-3.12 29.506c.255 1.93-1.523 3.649-3.426 4.066-1.679.369-3.408.004-5.089-.416l-1.642-.412z" fill="#00160A"/>
    <path fill-rule="evenodd" clip-rule="evenodd" d="M147.077 204.658c.139-.892 1.327-1.406 2.187-1.1.86.306 1.627 1.538.997 2.235-.997 1.103-3.451.596-3.184-1.135z" fill="#FFB61D"/>
    <path fill-rule="evenodd" clip-rule="evenodd" d="M521.194 435.61c-.562.471-1.689.642-1.794-.083a15.938 15.938 0 004.275-8.198c.715-.191.922.948.743 1.667-.606 2.421-1.311 5.009-3.224 6.614z" fill="#00160A"/>
    <path d="M37.11 169.945c-.023.719-1.114.677-1.773.39.237-.641 1.2-.856 1.688-.376l.085-.014z" fill="#2D2D2D"/>
    <path fill-rule="evenodd" clip-rule="evenodd" d="M348.42 367.422c-.76.676-2.039-.357-1.926-1.368.113-1.01 1.009-1.733 1.868-2.277a22.32 22.32 0 0110.284-3.389c.098 1.386-1.7 1.958-3.064 2.224a18.988 18.988 0 00-7.982 3.628c.421.258.726.698.82 1.182z" fill="#00160A"/>
    <path fill-rule="evenodd" clip-rule="evenodd" d="M358.749 369.19a77.574 77.574 0 01-5.205 2.28c.2.743 1.268.719 1.993.457.724-.261 1.676-.536 2.146.074-1.192 1.818-4.143 2.101-5.659.543-.659-.677-1.853-.231-2.704-.642-1.218-.588-.991-2.426-.273-3.573 1.496-2.392 4.351-3.868 7.171-3.707 1.074.062 2.356.591 2.428 1.664-3.368-.212-6.801 1.176-9.074 3.668 1.291.998 3.144.253 4.6-.485 1.457-.737 3.381-1.389 4.577-.279zm-179.252 9.547c.966.967 1.367 1.409 1.367 2.831 0 1.421-.771 2.333-2.073 2.751-.6.193-1.432.045-1.587-.565 4.339-.886 2.744-2.777 2.293-5.017zm-5.788-6.047c.462-1.534 2.476-2.363 3.885-1.6.558.302 1.022.851 1.051 1.484-1.646.039-3.001-1.025-4.936.116zm3.938 13.703c-9.178-5.093-1.992 1.433 0 0z" fill="#00160A"/>
  </g>
  <defs>
    <clipPath id="Workflow_Teamwork_1__clip0">
      <path fill="#fff" d="M0 0h640v615H0z"/>
    </clipPath>
  </defs>
</svg>
